<svg width="316" height="649" xmlns="http://www.w3.org/2000/svg"><g transform="translate(-5 -3)" fill="none" fill-rule="evenodd"><path d="M39.037 3h247.926C305.761 3 321 18.239 321 37.037v580.926C321 636.761 305.761 652 286.963 652H39.037C20.239 652 5 636.761 5 617.963V37.037C5 18.239 20.239 3 39.037 3zm2.517 13.856c-12.03 0-21.783 9.753-21.783 21.784v575.933c0 12.03 9.752 21.783 21.783 21.783h242.892c12.03 0 21.783-9.753 21.783-21.783V38.64c0-12.031-9.752-21.784-21.783-21.784H247.8c-2.824 0-4.76 1.144-5.126 4-.366 2.858-2.478 18.349-14.774 18.349H98.099c-11.788 0-14.471-15.05-14.73-18.302-.26-3.252-2.214-4.047-3.621-4.047H41.554z" fill="#212227"/><rect fill="#A8A8A8" x="142" y="22" width="41" height="6" rx="3"/><circle fill="#A8A8A8" cx="197" cy="25" r="5"/><rect fill="#FFF" x="111" y="628" width="103" height="3" rx="1.5"/></g></svg>