<?xml version="1.0" encoding="UTF-8" standalone="no"?>
<svg width="366px" height="441px" viewBox="0 0 366 441" version="1.1" xmlns="http://www.w3.org/2000/svg" xmlns:xlink="http://www.w3.org/1999/xlink">
    <!-- Generator: Sketch 47.1 (45422) - http://www.bohemiancoding.com/sketch -->
    <title>feature3</title>
    <desc>Created with Sketch.</desc>
    <defs>
        <linearGradient x1="85.6742295%" y1="3.06423874%" x2="9.46489726%" y2="92.508025%" id="linearGradient-1">
            <stop stop-color="#01A7F8" offset="0%"></stop>
            <stop stop-color="#1E2B6C" offset="100%"></stop>
        </linearGradient>
    </defs>
    <g id="Design" stroke="none" stroke-width="1" fill="none" fill-rule="evenodd">
        <g id="feature3">
            <g id="if_BTC_1175252" transform="translate(119.000000, 155.000000)" fill-rule="nonzero" fill="#01A5F6">
                <path d="M56.0010419,50.4814801 C54.9116483,49.9620876 52.4848927,49.2626919 49.5963742,49.0807063 C46.7066055,48.8991172 43,49.0807063 43,49.0807063 L43,60.9831203 C43,60.9831203 46.8703897,61.0616239 49.4609294,60.8800348 C52.0489685,60.6984457 54.7207752,60.0763641 56.0564701,59.3753825 C57.3913315,58.6751939 59,57.5860556 59,54.8638046 C59,52.1403641 57.0916858,51.0000796 56.0010419,50.4814801 Z" id="Shape"></path>
                <path d="M47.7118577,41.9648943 C49.7775957,41.8859065 51.974466,41.4143855 53.5614093,40.5487274 C55.1499715,39.6834702 56.0496846,38.3206301 55.9978793,36.2745655 C55.9436456,34.2289019 54.5683756,32.4983876 52.2391589,31.7895023 C49.9091327,31.0814188 48.3484968,31.0288939 46.5737591,31.0028319 C44.8002356,30.9771709 43,31.1343446 43,31.1343446 L43,41.9648943 C43.0004047,41.9648943 45.6473339,42.0438821 47.7118577,41.9648943 Z" id="Shape"></path>
                <path d="M46.50041,0 C20.8190535,0 0,20.81846 0,46.5 C0,72.18113 20.8190535,93 46.50041,93 C72.1817665,93 93,72.18113 93,46.5 C93,20.81846 72.1817665,0 46.50041,0 Z M65.4338298,64.2794962 C61.9733494,66.693201 58.2730134,67.1228871 56.6370754,67.3365002 C55.8297667,67.4426918 54.4468046,67.5546234 52.9638001,67.6415446 L52.9638001,76.9642589 L47.2244868,76.9642589 L47.2244868,67.7924268 C46.1523119,67.7924268 44.6164163,67.7924268 42.8537853,67.7924268 L42.8537853,76.9642589 L37.114882,76.9642589 L37.114882,67.7924268 C31.4354301,67.7924268 25.8252698,67.7924268 25.8252698,67.7924268 L27.0048672,60.8994075 C27.0048672,60.8994075 29.2841101,60.8994075 30.4370569,60.8994075 C31.5908237,60.8994075 32.0725849,60.7923959 32.5551661,60.3368794 C33.0377473,59.8805428 33.1451698,59.1839428 33.1451698,58.6197746 C33.1451698,58.0568365 33.1451698,36.3621939 33.1451698,34.8738725 C33.1451698,33.3863711 33.024217,32.9837452 32.3403211,32.2199042 C31.6564252,31.4544232 30.0479579,31.3539718 29.1422469,31.3539718 C28.2373558,31.3539718 25.8248598,31.3539718 25.8248598,31.3539718 L25.8248598,25.3953559 C25.8248598,25.3953559 31.2558459,25.3953559 37.114472,25.3953559 L37.114472,16.1972834 L42.8529653,16.1972834 L42.8529653,25.3953559 C44.4474923,25.3953559 45.9432071,25.3953559 47.2236668,25.3953559 L47.2236668,16.1972834 L52.9629801,16.1972834 L52.9629801,25.5056475 C57.2414295,25.7709213 60.4263835,26.5860131 63.206248,28.6401427 C66.8003915,31.2949309 66.6117871,35.9070874 66.5314252,37.0067232 C66.4514734,38.1063591 65.9688922,40.2252696 65.0024997,41.5918193 C64.0381573,42.960009 61.6781425,44.3277887 61.6781425,44.3277887 C61.6781425,44.3277887 64.4666173,44.9173772 66.4252328,46.3925785 C68.3813882,47.8677797 69.8311819,50.4684472 69.74877,54.276582 C69.6700481,58.0847169 68.8926701,61.8662014 65.4338298,64.2794962 Z" id="Shape"></path>
            </g>
            <g id="Group-3-Copy" fill-rule="nonzero" fill="url(#linearGradient-1)">
                <path d="M270.724351,54.2045815 L243.147186,26.627417 L239.611652,30.1629509 L267.850244,58.4015421 L270.724351,61.2756493 L328,4 L324.464466,0.464466094 L270.724351,54.2045815 Z M79.7598846,410 L106.629942,383.129942 L103.094408,379.594408 L76.2243507,406.464466 L49.354293,379.594408 L45.8187591,383.129942 L72.6888168,410 L45.8187591,436.870058 L49.354293,440.405592 L76.2243507,413.535534 L103.094408,440.405592 L106.629942,436.870058 L79.7598846,410 Z M19.5,279.5 L0.5,279.5 L0.5,117.5 L327.5,117.5 L327.5,136.5 L346.5,136.5 L346.5,158.5 L365.5,158.5 L365.5,320.5 L38.5,320.5 L38.5,298.5 L19.5,298.5 L19.5,279.5 Z M24.5,279.5 L24.5,293.5 L341.5,293.5 L341.5,141.5 L327.5,141.5 L327.5,279.5 L24.5,279.5 Z M346.5,163.5 L346.5,298.5 L43.5,298.5 L43.5,315.5 L360.5,315.5 L360.5,163.5 L346.5,163.5 Z M5.5,122.5 L5.5,274.5 L322.5,274.5 L322.5,122.5 L5.5,122.5 Z" id="Combined-Shape"></path>
            </g>
            <polyline id="Path-62" stroke="#14579D" stroke-width="5" points="25 136 25 202 105 202"></polyline>
            <polyline id="Path-62-Copy" stroke="#14579D" stroke-width="5" transform="translate(264.000000, 234.000000) scale(-1, -1) translate(-264.000000, -234.000000) " points="224 201 224 267 304 267"></polyline>
            <path d="M304,136 L304,189" id="Path-63" stroke="#01A5F6" stroke-width="5"></path>
            <path d="M25,214 L25,267" id="Path-63-Copy" stroke="#01A5F6" stroke-width="5"></path>
        </g>
    </g>
</svg>