<?xml version="1.0" encoding="UTF-8" standalone="no"?>
<svg width="326px" height="281px" viewBox="0 0 326 281" version="1.1" xmlns="http://www.w3.org/2000/svg" xmlns:xlink="http://www.w3.org/1999/xlink">
    <!-- Generator: Sketch 47.1 (45422) - http://www.bohemiancoding.com/sketch -->
    <title>feature2</title>
    <desc>Created with Sketch.</desc>
    <defs>
        <linearGradient x1="0%" y1="78.5360788%" x2="100%" y2="38.3370489%" id="linearGradient-1">
            <stop stop-color="#1E2B6C" offset="0%"></stop>
            <stop stop-color="#00ADFF" offset="100%"></stop>
        </linearGradient>
    </defs>
    <g id="Design" stroke="none" stroke-width="1" fill="none" fill-rule="evenodd">
        <g id="feature2" fill-rule="nonzero">
            <path d="M136,20.9263825 L97.3813513,81.1382541 L98.0806263,82.5 L136,82.5 L136,70.1590999 L127.5,55.1590999 L127.5,38.3004884 L136,24.3004884 L136,20.9263825 Z M141,13.1306836 L141,25.6995116 L132.5,39.6995116 L132.5,53.8409001 L141,68.8409001 L141,82.5 L155.203383,82.5 L163.53495,87.5912493 L172.328495,82.5 L189,82.5 L189,69.859509 L197.5,54.359509 L197.5,40.2214871 L189,26.7214871 L189,14.0301524 L187.119656,11 L142.366576,11 L141,13.1306836 Z M141,87.5 L141,93.9393378 L126.381442,110.646262 L122.618558,107.353738 L136,92.0606622 L136,87.5 L100.648194,87.5 L116.636123,118.634388 L106.5,127.123775 L106.5,196.524517 L163.176429,227.814628 L221,196.021599 L221,126.108254 L189,97.1082536 L189,87.5 L173.671505,87.5 L163.465983,93.4087507 L153.796617,87.5 L141,87.5 Z M186.5,187.5 L186.5,202.5 L141.5,202.5 L141.5,187.5 L131.5,187.5 L131.5,166 L136.5,166 L136.5,182.5 L191.5,182.5 L191.5,166 L196.5,166 L196.5,187.5 L186.5,187.5 Z M181.5,187.5 L146.5,187.5 L146.5,197.5 L181.5,197.5 L181.5,187.5 Z M194,87.5 L194,94.8917464 L226,123.891746 L226,198.978401 L168.35465,230.673438 L247.731652,274.496158 C296.243884,234.995811 320.5,215.195469 320.5,215.09513 L320.5,6.01320248 L253.885677,56.1936972 C251.753752,57.7996742 250.5,60.313799 250.5,62.9829316 L250.5,251 L245.5,251 L245.5,62.9829316 C245.5,58.7437211 247.491253,54.7506993 250.877252,52.2000299 L318.292417,1.41626142 C320.277495,-0.0790951533 323.098944,0.317902006 324.594301,2.30297939 C325.182094,3.08327123 325.5,4.03365056 325.5,5.01056198 L325.5,215.09513 C325.5,216.750718 324.754221,218.318227 323.469632,219.362642 L248.268348,280.503842 L163.171491,233.523285 L77.7292116,280.501858 L2.53036808,219.362642 C1.24577917,218.318227 0.5,216.750718 0.5,215.09513 L0.5,5.01056198 C0.5,4.03365056 0.817906473,3.08327123 1.40569944,2.30297939 C2.90105601,0.317902006 5.7225052,-0.0790951533 7.70758259,1.41626142 L75.1227478,52.2000299 C78.508747,54.7506993 80.5,58.7437211 80.5,62.9829316 L80.5,251 L75.5,251 L75.5,62.9829316 C75.5,60.313799 74.2462481,57.7996742 72.1143227,56.1936972 L5.5,6.01320248 L5.5,215.09513 C5.5,215.195469 29.7569295,234.996473 78.2707884,274.498142 L157.993269,230.664476 L101.5,199.475483 L101.5,124.789445 L110.363877,117.365612 L91.6186487,80.8617459 L139.633424,6 L189.901395,6 L236.360743,80.8686837 L222.736068,108.118034 L218.263932,105.881966 L227.454915,87.5 L194,87.5 Z M194,82.5 L229.954915,82.5 L230.639257,81.1313163 L194,22.0875926 L194,25.2785129 L202.5,38.7785129 L202.5,55.640491 L194,71.140491 L194,82.5 Z M144.5,48.5 L144.5,41.5 L155.011898,41.5 L155.011898,48.5 L144.5,48.5 Z M173.5,48.5 L173.5,41.5 L184.011898,41.5 L184.011898,48.5 L173.5,48.5 Z M156.5,72.5 L156.5,67.5 L171.5,67.5 L171.5,72.5 L156.5,72.5 Z M209.546864,154.500082 L209.546864,146.5 L113.5,146.5 L113.5,127.914759 L212.049026,128.000001 L212.044701,132.999999 L118.5,132.919086 L118.5,141.5 L214.546864,141.5 L214.546864,159.500087 L115.999998,159.5 L116.000002,154.5 L209.546864,154.500082 Z" id="Combined-Shape" fill="url(#linearGradient-1)"></path>
            <path d="M265,88.1351262 L265,221.34339 L309,187.484688 L309,55.4439191 L265,88.1351262 Z M260,85.6210269 L314,45.5 L314,189.946139 L260,231.5 L260,85.6210269 Z" id="Rectangle-7" fill="#00ADFF"></path>
            <path d="M61,55.4439191 L17,88.1351262 L17,221.34339 L61,187.484688 L61,55.4439191 Z M12,85.6210269 L66,45.5 L66,189.946139 L12,231.5 L12,85.6210269 Z" id="Rectangle-7-Copy" fill="#193F82" transform="translate(39.000000, 138.500000) scale(-1, 1) translate(-39.000000, -138.500000) "></path>
        </g>
    </g>
</svg>