<?xml version="1.0" encoding="UTF-8" standalone="no"?>
<svg width="258px" height="302px" viewBox="0 0 258 302" version="1.1" xmlns="http://www.w3.org/2000/svg" xmlns:xlink="http://www.w3.org/1999/xlink">
    <!-- Generator: Sketch 47.1 (45422) - http://www.bohemiancoding.com/sketch -->
    <title>feature4</title>
    <desc>Created with Sketch.</desc>
    <defs>
        <linearGradient x1="50%" y1="0%" x2="50%" y2="100%" id="linearGradient-1">
            <stop stop-color="#01A5F6" offset="0%"></stop>
            <stop stop-color="#1D3173" offset="100%"></stop>
        </linearGradient>
    </defs>
    <g id="Design" stroke="none" stroke-width="1" fill="none" fill-rule="evenodd">
        <g id="feature4" fill-rule="nonzero" fill="url(#linearGradient-1)">
            <path d="M134.798828,103.875 C134.798828,108.405389 134.815539,111.800873 134.848849,114.056842 C134.853541,114.374665 134.85856,114.66942 134.86389,114.940894 C154.268361,113.95832 167.746392,100.717334 175.5,74.6381172 L175.5,29.4355516 L134.991571,64.1570626 C134.863072,81.7497394 134.798828,94.9897734 134.798828,103.875 Z M180.5,18.5644484 L180.5,75.3600226 L180.398414,75.7054158 C171.777977,105.0149 155.735105,120 132.5,120 C130.139041,120 130.290694,120.684744 129.966097,117.544126 C129.945355,117.343438 129.928994,117.087723 129.914436,116.759066 C129.887975,116.161685 129.866491,115.288608 129.849394,114.130658 C129.815645,111.84496 129.798828,108.427945 129.798828,103.875 C129.798828,94.784233 129.865912,81.1538502 130.000068,62.9815444 L130.008474,61.8428992 L180.5,18.5644484 Z M88.7988281,29.4355516 L88.7988281,74.6381172 C96.5524362,100.717334 110.030467,113.95832 129.434938,114.940894 C129.440268,114.66942 129.445287,114.374665 129.449979,114.056842 C129.483289,111.800873 129.5,108.405389 129.5,103.875 C129.5,94.9897734 129.435756,81.7497394 129.307258,64.1570626 L88.7988281,29.4355516 Z M134.29876,62.9815444 C134.432916,81.1538502 134.5,94.784233 134.5,103.875 C134.5,108.427945 134.483183,111.84496 134.449435,114.130658 C134.432338,115.288608 134.410853,116.161685 134.384392,116.759066 C134.369834,117.087723 134.353473,117.343438 134.332731,117.544126 C134.008135,120.684744 134.159787,120 131.798828,120 C108.563723,120 92.5208509,105.0149 83.9004144,75.7054158 L83.7988281,75.3600226 L83.7988281,18.5644484 L134.290354,61.8428992 L134.29876,62.9815444 Z M132.25,59.6904457 L149.865747,44.4093159 L132.25,10.8757255 L114.634253,44.4093159 L132.25,59.6904457 Z M132.25,0.124274465 L156.134253,45.5906841 L132.25,66.3095543 L108.365747,45.5906841 L132.25,0.124274465 Z M51.5,196.875 C51.5,201.405389 51.5167113,204.800873 51.5500205,207.056842 C51.5547131,207.374665 51.5597315,207.66942 51.565062,207.940894 C70.9695327,206.95832 84.4475638,193.717334 92.2011719,167.638117 L92.2011719,122.435552 L51.6927409,157.157064 C51.5642439,174.749739 51.5,187.989773 51.5,196.875 Z M97.2011719,111.564448 L97.2011719,168.360023 L97.0995856,168.705416 C88.4791491,198.0149 72.4362774,213 49.2011719,213 C46.8402126,213 46.9918654,213.684744 46.6672688,210.544126 C46.6465269,210.343438 46.6301659,210.087723 46.6156081,209.759066 C46.5891473,209.161685 46.5676624,208.288608 46.5505654,207.130658 C46.5168173,204.84496 46.5,201.427945 46.5,196.875 C46.5,187.784233 46.5670838,174.15385 46.70124,155.981544 L46.709646,154.842899 L97.2011719,111.564448 Z M5.5,122.435552 L5.5,167.638117 C13.253608,193.717334 26.7316392,206.95832 46.1361099,207.940894 C46.1414403,207.66942 46.1464587,207.374665 46.1511514,207.056842 C46.1844605,204.800873 46.2011719,201.405389 46.2011719,196.875 C46.2011719,187.989773 46.136928,174.749739 46.0084295,157.157063 L5.5,122.435552 Z M50.9999319,155.981544 C51.1340881,174.15385 51.2011719,187.784233 51.2011719,196.875 C51.2011719,201.427945 51.1843546,204.84496 51.1506064,207.130658 C51.1335094,208.288608 51.1120246,209.161685 51.0855638,209.759066 C51.071006,210.087723 51.054645,210.343438 51.033903,210.544126 C50.7093065,213.684744 50.8609593,213 48.5,213 C25.2648945,213 9.22202278,198.0149 0.601586246,168.705416 L0.5,168.360023 L0.5,111.564448 L50.9915259,154.842899 L50.9999319,155.981544 Z M31.1426554,136.936791 L49,152.668261 L66.8573446,136.936791 L49,103.773151 L31.1426554,136.936791 Z M49,93.2268489 L73.1426554,138.063209 L49,159.331739 L24.8573446,138.063209 L49,93.2268489 Z M211.5,231.875 C211.5,236.405389 211.516711,239.800873 211.550021,242.056842 C211.554713,242.374665 211.559732,242.66942 211.565062,242.940894 C230.969533,241.95832 244.447564,228.717334 252.201172,202.638117 L252.201172,157.435552 L211.692742,192.157063 C211.564244,209.749739 211.5,222.989773 211.5,231.875 Z M257.201172,146.564448 L257.201172,203.360023 L257.099586,203.705416 C248.479149,233.0149 232.436277,248 209.201172,248 C206.840213,248 206.991865,248.684744 206.667269,245.544126 C206.646527,245.343438 206.630166,245.087723 206.615608,244.759066 C206.589147,244.161685 206.567662,243.288608 206.550565,242.130658 C206.516817,239.84496 206.5,236.427945 206.5,231.875 C206.5,222.784233 206.567084,209.15385 206.70124,190.981544 L206.709646,189.842899 L257.201172,146.564448 Z M165.5,157.435552 L165.5,202.638117 C173.253608,228.717334 186.731639,241.95832 206.13611,242.940894 C206.14144,242.66942 206.146459,242.374665 206.151151,242.056842 C206.184461,239.800873 206.201172,236.405389 206.201172,231.875 C206.201172,222.989773 206.136928,209.749739 206.008429,192.157063 L165.5,157.435552 Z M210.999932,190.981544 C211.134088,209.15385 211.201172,222.784233 211.201172,231.875 C211.201172,236.427945 211.184355,239.84496 211.150606,242.130658 C211.133509,243.288608 211.112025,244.161685 211.085564,244.759066 C211.071006,245.087723 211.054645,245.343438 211.033903,245.544126 C210.709306,248.684744 210.860959,248 208.5,248 C185.264895,248 169.222023,233.0149 160.601586,203.705416 L160.5,203.360023 L160.5,146.564448 L210.991526,189.842899 L210.999932,190.981544 Z M208.75,187.650662 L226.354172,171.955377 L208.75,139.716412 L191.145828,171.955377 L208.75,187.650662 Z M134.5,296.5 L206.5,296.5 L206.5,245 L211.5,245 L211.5,296.5 L250.033193,296.5 L250.033193,301.5 L9,301.5 L9,296.5 L46.5,296.5 L46.5,210 L51.5,210 L51.5,296.5 L129.5,296.5 L129.5,117.5 L134.5,117.5 L134.5,296.5 Z M208.75,129.283588 L232.645828,173.044623 L208.75,194.349338 L184.854172,173.044623 L208.75,129.283588 Z" id="Combined-Shape"></path>
        </g>
    </g>
</svg>