<?xml version="1.0" encoding="UTF-8" standalone="no"?>
<svg width="402px" height="390px" viewBox="0 0 402 390" version="1.1" xmlns="http://www.w3.org/2000/svg" xmlns:xlink="http://www.w3.org/1999/xlink">
    <!-- Generator: Sketch 47.1 (45422) - http://www.bohemiancoding.com/sketch -->
    <title>feature5</title>
    <desc>Created with Sketch.</desc>
    <defs>
        <linearGradient x1="50%" y1="0%" x2="50%" y2="100%" id="linearGradient-1">
            <stop stop-color="#01A1F1" offset="0%"></stop>
            <stop stop-color="#1C2F70" offset="100%"></stop>
        </linearGradient>
    </defs>
    <g id="Design" stroke="none" stroke-width="1" fill="none" fill-rule="evenodd">
        <g id="feature5">
            <path d="M267.82476,36.7437675 L267.11719,39.6400039 L264.388628,38.4384252 C261.967084,37.3720477 259.341265,36.8141684 256.632444,36.8141684 C245.992173,36.8141684 237.36653,45.4398118 237.36653,56.0800821 C237.36653,66.7203525 245.992173,75.3459959 256.632444,75.3459959 C257.278842,75.3459959 257.920946,75.3142513 258.557323,75.2512251 L259.210441,75.2723607 C259.506714,75.3212122 259.808762,75.3459959 260.11499,75.3459959 L328.714579,75.3459959 C328.998481,75.3459959 329.278793,75.3246943 329.554256,75.2826582 L330.134485,75.2623106 C330.817654,75.3179926 331.505551,75.3459959 332.197125,75.3459959 C346.012749,75.3459959 357.212526,64.1462196 357.212526,50.3305955 C357.212526,36.5149713 346.012749,25.3151951 332.197125,25.3151951 C329.935755,25.3151951 327.716527,25.6146385 325.579377,26.1992466 L323.95253,26.6442636 L322.930744,25.3023901 C317.067453,17.6023516 307.973528,12.9948665 298.110883,12.9948665 C283.664211,12.9948665 271.205946,22.9038458 267.82476,36.7437675 Z M298.110883,7.99486653 C308.988644,7.99486653 319.068887,12.8310007 325.87856,20.9819465 C327.939382,20.5402003 330.054092,20.3151951 332.197125,20.3151951 C348.774173,20.3151951 362.212526,33.7535476 362.212526,50.3305955 C362.212526,66.9076434 348.774173,80.3459959 332.197125,80.3459959 C331.463423,80.3459959 330.732689,80.3196239 330.00589,80.2671226 C329.579382,80.3195588 329.148344,80.3459959 328.714579,80.3459959 L260.11499,80.3459959 C259.651398,80.3459959 259.190954,80.315798 258.735864,80.2559509 C258.038984,80.3158688 257.337399,80.3459959 256.632444,80.3459959 C243.230749,80.3459959 232.36653,69.4817762 232.36653,56.0800821 C232.36653,42.678388 243.230749,31.8141684 256.632444,31.8141684 C259.068132,31.8141684 261.455613,32.1739879 263.734944,32.8707631 C268.538441,18.2250546 282.296835,7.99486653 298.110883,7.99486653 Z" id="Combined-Shape" fill="#01A1F1" fill-rule="nonzero"></path>
            <path d="M38.1649989,20.787457 L37.4462935,23.6432194 L34.7450474,22.4705364 C33.1665695,21.7852771 31.458207,21.4271047 29.6950719,21.4271047 C22.6837773,21.4271047 17,27.110882 17,34.1221766 C17,41.1334712 22.6837773,46.8172485 29.6950719,46.8172485 C30.5396548,46.8172485 31.3722429,46.7351213 32.1853867,46.5735752 L32.768973,46.4576349 L33.3422203,46.6170172 C33.8181746,46.7493487 34.3134965,46.8172485 34.8203285,46.8172485 L77.9579055,46.8172485 C78.3519653,46.8172485 78.7390832,46.776208 79.1157329,46.695693 L79.542521,46.6044601 L79.9749767,46.6632272 C80.7279266,46.7655469 81.4912743,46.8172485 82.261807,46.8172485 C91.5412114,46.8172485 99.063655,39.2948049 99.063655,30.0154004 C99.063655,20.735996 91.5412114,13.2135524 82.261807,13.2135524 C80.6547982,13.2135524 79.0804694,13.4384686 77.5701111,13.876675 L75.9482927,14.3472199 L74.90624,13.0183732 C70.9642022,7.99140672 64.9525687,5 58.4425051,5 C48.8062328,5 40.4835904,11.5745768 38.1649989,20.787457 Z M58.4425051,0 C65.9453525,0 72.9225852,3.21268307 77.7877424,8.6735675 C79.248142,8.36877857 80.745319,8.21355236 82.261807,8.21355236 C94.3026352,8.21355236 104.063655,17.9745722 104.063655,30.0154004 C104.063655,42.0562286 94.3026352,51.8172485 82.261807,51.8172485 C81.407017,51.8172485 80.5578278,51.7679352 79.7172389,51.6700999 C79.1392751,51.7677766 78.5512725,51.8172485 77.9579055,51.8172485 L34.8203285,51.8172485 C34.0661906,51.8172485 33.3211369,51.7373327 32.5948741,51.5804118 C31.6421853,51.7376387 30.6732389,51.8172485 29.6950719,51.8172485 C19.9223535,51.8172485 12,43.8948949 12,34.1221766 C12,24.3494583 19.9223535,16.4271047 29.6950719,16.4271047 C31.2011171,16.4271047 32.6823936,16.6159009 34.1119561,16.9833829 C37.7919862,6.9362819 47.4229568,0 58.4425051,0 Z" id="Combined-Shape-Copy-7" fill="#01A1F1" fill-rule="nonzero"></path>
            <path d="M129.772714,103.842256 L129.055531,106.78101 L126.30445,105.523164 C124.771581,104.822309 123.100998,104.454825 121.373717,104.454825 C114.816044,104.454825 109.5,109.770869 109.5,116.328542 C109.5,122.886215 114.816044,128.202259 121.373717,128.202259 C122.199843,128.202259 123.013573,128.11827 123.806957,127.953226 L124.407058,127.82839 L124.996846,127.99529 C125.480125,128.13205 125.983598,128.202259 126.498973,128.202259 L166.351129,128.202259 C166.792439,128.202259 167.225032,128.150784 167.643858,128.050071 L168.126988,127.933894 L168.617825,128.011304 C169.421639,128.138073 170.239146,128.202259 171.065708,128.202259 C179.66468,128.202259 186.635524,121.231415 186.635524,112.632444 C186.635524,104.033472 179.66468,97.0626283 171.065708,97.0626283 C169.741228,97.0626283 168.440652,97.227449 167.183979,97.5497672 L165.575705,97.962266 L164.571718,96.639877 C160.871304,91.7659201 155.124529,88.849076 148.889117,88.849076 C139.769347,88.849076 131.90476,95.1058956 129.772714,103.842256 Z M148.889117,83.849076 C156.155007,83.849076 162.900124,87.0131852 167.537971,92.3643757 C168.69522,92.164189 169.874288,92.0626283 171.065708,92.0626283 C182.426104,92.0626283 191.635524,101.272048 191.635524,112.632444 C191.635524,123.992839 182.426104,133.202259 171.065708,133.202259 C170.139098,133.202259 169.219525,133.140831 168.311326,133.019149 C167.669106,133.140605 167.013529,133.202259 166.351129,133.202259 L126.498973,133.202259 C125.734324,133.202259 124.979046,133.120099 124.243265,132.958839 C123.301273,133.1204 122.342239,133.202259 121.373717,133.202259 C112.05462,133.202259 104.5,125.647638 104.5,116.328542 C104.5,107.009446 112.05462,99.4548255 121.373717,99.4548255 C122.856422,99.4548255 124.31378,99.6467641 125.717363,100.019752 C129.222093,90.4574995 138.391367,83.849076 148.889117,83.849076 Z" id="Combined-Shape-Copy-6" fill="#1C2F70" fill-rule="nonzero"></path>
            <g id="Group-21-Copy" transform="translate(0.000000, 119.000000)">
                <path d="M165.170308,201.314973 L161.25376,212.652821 L149.384661,201.353883 L149.384661,190.789686 L149.550742,190.789686 L145.377878,183.567122 L126.12765,179.950248 L103.541528,191.266639 L103.541528,197.409587 L79.231184,220.795731 L68.176826,205.498652 L68.176826,180.982959 L86.514079,151.123363 L86.514079,166.662263 L92.1492029,159.67103 L108.541544,152.826777 L113.063535,151.753567 L84.7734354,122.583326 L3.67946586,82.3942143 L0,41.8364746 L15.2067884,21.5188693 L51.6455119,2.33354623 L39.3030911,16.6042219 L44.0548081,27.2261044 L65.9922982,36.3510446 L94.5688622,36.3510446 L103.186201,59.0751009 L154.623876,100.045925 L154.623876,108.981974 L170.221882,147.001453 L187.312728,134.705752 L205.385395,87.7059831 L224.870669,22.4729654 L279.591657,0 L354.779336,6.64791253 L402,31.552237 L340.812823,44.4855708 L324.821514,60.0990362 L323.051925,80.9346621 L298.890306,96.1789615 L284.117791,115.634376 L277.116158,143.246114 L241.557169,149.885701 L220.854395,184.054832 L239.653546,197.352235 L227.154351,197.352235 L248.099314,230.2206 L262.019547,248.396557 L275.233997,252.349318 L305.110611,240.206497 L325.693953,208.837993 L329.454341,211.049882 L312.574418,243.544093 L275.861528,265.211079 L251.464477,263.348416 L231.654461,243.938605 L225.35328,242.216551 L225.35328,249.031233 L206.579426,258.218801 L206.579426,263.569113 L202.253678,271 L186.616338,264.284438 L189.776055,248.980922 L195.684093,244.944392 L180.142419,228.172627 L175.861494,210.477332 L187.480374,210.477332 L165.170308,201.314973 Z M161.359949,198.970637 L153.750673,193.966733 L153.750673,199.475632 L159.345625,204.801816 L161.359949,198.970637 Z M207.280772,94.9290337 L207.412854,94.9546507 L199.450556,136.178176 L175.095042,166.352657 L171.700419,163.601334 L195.371043,134.275375 L198.617597,117.46686 L190.918023,137.497812 L156.333621,162.378934 L153.787333,158.824992 L158.361512,155.534181 L141.807298,153.164408 L126.063179,153.164408 L109.893145,157.002065 L99.6121169,161.294676 L99.6121169,182.477125 L95.2461043,182.477125 L95.2461043,178.286013 L91.9995771,185.557948 L88.0142011,183.771333 L97.6906489,162.096942 L94.8501955,163.282909 L82.1480664,179.041844 L82.1480664,166.580537 L72.5428386,182.221278 L72.5428386,204.080927 L79.8257337,214.159036 L99.1755156,195.54487 L99.1755156,188.56272 L125.488735,175.378931 L148.152228,179.637114 L153.197773,188.370151 L166.561063,197.157927 L188.178082,206.035663 L185.530678,199.668769 L211.802082,204.830666 L210.961998,209.123945 L192.700073,205.535778 L206.8732,239.621555 L202.899729,245.309669 L193.693912,251.599329 L191.614413,261.671002 L200.426744,265.455517 L202.213414,262.386327 L202.213414,255.486548 L220.987268,246.29898 L220.987268,236.488539 L233.896543,240.016524 L253.38064,259.106998 L274.826722,260.744361 L293.920475,249.475728 L275.454253,256.980998 L259.416419,252.183695 L244.578342,232.809288 L219.186198,192.977202 L225.897458,192.977202 L215.007723,185.27445 L238.838278,145.943037 L272.504554,139.656858 L227.281131,29.660504 L209.543961,89.0411996 L207.280772,94.9290337 Z M117.348122,150.7367 L125.553206,148.789376 L128.440459,148.789376 C122.452068,145.132845 112.409301,138.958292 98.3121574,130.265715 L117.768475,150.327344 L117.348122,150.7367 Z M135.002765,148.789376 L142.117581,148.789376 L163.485012,151.848172 L166.586553,149.616824 L166.576074,149.621141 L150.257863,109.846195 L150.257863,103.437062 L17.8610969,84.5415977 L87.3815202,118.995011 L89.9333061,121.626187 L135.002765,148.789376 Z M199.332356,242.451802 L199.780693,242.145486 L201.91964,239.083535 L191.844134,214.852364 L181.412397,214.852364 L184.117092,226.032282 L199.332356,242.451802 Z M232.094175,24.2346014 L318.958144,77.5434909 L320.60921,58.1033894 L338.672799,40.466609 L389.255545,29.7747683 L353.521969,10.9287693 L280.265219,4.45158484 L232.094175,24.2346014 Z M315.482201,80.5406206 L231.809912,29.1904825 L274.934946,134.082953 L280.105098,113.693871 L295.894672,92.898988 L315.482201,80.5406206 Z M145.456297,98.3326076 L99.5308428,61.7523441 L91.9484009,41.7573273 L15.6257307,79.8033871 L145.456297,98.3326076 Z M84.2145816,40.726077 L65.1221386,40.726077 L40.7798949,30.600875 L34.4058825,16.3525494 L18.1089657,24.9330259 L4.50007081,43.1157052 L7.74167603,78.8470275 L84.2145816,40.726077 Z M173.509616,191.990751 L175.066976,186.788825 L172.584806,176.425083 L176.830262,175.404069 L179.587307,186.915489 L175.905452,199.213692 L160.736294,187.954065 L160.736294,175.914576 L165.102306,175.914576 L165.102306,185.750249 L173.509616,191.990751 Z" id="Combined-Shape" fill="url(#linearGradient-1)" fill-rule="nonzero"></path>
                <polygon id="Path-73" fill="#12579E" points="82 205 82 198.275862 90 192"></polygon>
            </g>
        </g>
    </g>
</svg>