<?xml version="1.0" encoding="UTF-8" standalone="no"?>
<svg width="376px" height="412px" viewBox="0 0 376 412" version="1.1" xmlns="http://www.w3.org/2000/svg" xmlns:xlink="http://www.w3.org/1999/xlink">
    <!-- Generator: Sketch 47.1 (45422) - http://www.bohemiancoding.com/sketch -->
    <title>Feature1</title>
    <desc>Created with Sketch.</desc>
    <defs>
        <linearGradient x1="12.3716508%" y1="72.8951303%" x2="95.9536492%" y2="21.1194097%" id="linearGradient-1">
            <stop stop-color="#1E2B6C" offset="0%"></stop>
            <stop stop-color="#00ADFF" offset="100%"></stop>
        </linearGradient>
    </defs>
    <g id="Design" stroke="none" stroke-width="1" fill="none" fill-rule="evenodd">
        <g id="Feature1">
            <g id="Group-20-Copy" fill-rule="nonzero" fill="url(#linearGradient-1)">
                <path d="M249.469699,122.5 L263.974524,122.5 L263.974524,150.5 L280.2229,150.5 L372.582738,86.9405415 L375.417262,91.0594585 L281.7771,155.5 L258.974524,155.5 L258.974524,127.5 L249.469699,127.5 L249.469699,254.02027 L294.535953,254.02027 L87.9942662,408.004288 L85.0057338,403.995712 L279.464047,259.02027 L244.469699,259.02027 L244.469699,99.2284272 L235.427461,99.2284272 L235.427461,41.5 L212.173575,41.5 L212.173575,260.5 L120.92487,260.5 L120.92487,87.3716226 L114.976684,87.3716226 L114.976684,59.2567568 L93.2098446,59.2567568 L93.2098446,71.0945946 L69.4699816,71.0945946 L69.4699816,115.486486 L61.9818653,115.486486 L61.9818653,259.02027 L0,259.02027 L0,254.02027 L29.5,254.02027 L29.5,149.5 L1,149.5 L1,144.5 L10.5,144.5 L10.5,85.4727874 L19.3854014,85.4727874 L19.3854014,73.5 L37.805984,73.5 L37.805984,85.4922135 L49.5606278,85.4922135 L49.5606278,122.676563 L56.9818653,122.676563 L56.9818653,110.486486 L64.4699816,110.486486 L64.4699816,66.0945946 L88.2098446,66.0945946 L88.2098446,54.2567568 L119.976684,54.2567568 L119.976684,82.3716226 L125.92487,82.3716226 L125.92487,107.555635 L138.903509,107.555635 L138.903509,86.7503594 L156.798246,86.7503594 L156.798246,62.9729011 L161.27193,62.9729011 L161.27193,37.7093517 L164.254386,37.7093517 L164.254386,31.7649871 L167.236842,31.7649871 L167.236842,25.8206225 L171.710526,25.8206225 L171.710526,19.8762579 L176.184211,19.8762579 L176.184211,0.5 L185.658261,0.5 L185.658261,19.8762579 L190.131579,19.8762579 L190.131579,25.8206225 L194.605263,25.8206225 L194.605263,31.7649871 L197.587719,31.7649871 L197.587719,39.1954428 L200.570175,39.1954428 L200.570175,61.48681 L203.552632,61.48681 L203.552632,113.5 L207.173575,113.5 L207.173575,36.5 L240.427461,36.5 L240.427461,94.2284272 L249.469699,94.2284272 L249.469699,122.5 Z M56.9818653,187 L56.9818653,127.676563 L44.5606278,127.676563 L44.5606278,90.4922135 L32.805984,90.4922135 L32.805984,78.5 L24.3854014,78.5 L24.3854014,90.4727874 L15.5,90.4727874 L15.5,144.5 L34.5,144.5 L34.5,187 L56.9818653,187 Z M56.9818653,192 L34.5,192 L34.5,254.02027 L56.9818653,254.02027 L56.9818653,192 Z M187.5,255.5 L187.5,205.5 L207.173575,205.5 L207.173575,157.5 L176.775192,157.5 L176.775192,196.5 L156.787448,196.5 L156.787448,177.025563 L125.92487,177.025563 L125.92487,255.5 L187.5,255.5 Z M192.5,255.5 L207.173575,255.5 L207.173575,210.5 L192.5,210.5 L192.5,255.5 Z M125.92487,172.025563 L161.787448,172.025563 L161.787448,191.5 L171.775192,191.5 L171.775192,152.5 L207.173575,152.5 L207.173575,118.5 L198.552632,118.5 L198.552632,66.48681 L195.570175,66.48681 L195.570175,44.1954428 L192.587719,44.1954428 L192.587719,36.7649871 L189.605263,36.7649871 L189.605263,30.8206225 L185.131579,30.8206225 L185.131579,24.8762579 L180.658261,24.8762579 L180.658261,3 L183.158261,5.5 L178.684211,5.5 L181.184211,3 L181.184211,24.8762579 L176.710526,24.8762579 L176.710526,30.8206225 L172.236842,30.8206225 L172.236842,36.7649871 L169.254386,36.7649871 L169.254386,42.7093517 L166.27193,42.7093517 L166.27193,67.9729011 L161.798246,67.9729011 L161.798246,91.7503594 L143.903509,91.7503594 L143.903509,112.555635 L125.92487,112.555635 L125.92487,172.025563 Z" id="Combined-Shape"></path>
            </g>
            <path d="M29,410 L84,372" id="Path-41" stroke="#01A7F8" stroke-width="5"></path>
            <path d="M302,105 L327,88" id="Path-41-Copy" stroke="#193F83" stroke-width="5"></path>
        </g>
    </g>
</svg>