<svg width="402" height="390" xmlns="http://www.w3.org/2000/svg"><defs><linearGradient x1="50%" y1="0%" x2="50%" y2="100%" id="a"><stop stop-color="#01A1F1" offset="0%"/><stop stop-color="#1C2F70" offset="100%"/></linearGradient></defs><g fill="none" fill-rule="evenodd"><path d="M267.825 36.744l-.708 2.896-2.728-1.202a19.19 19.19 0 0 0-7.757-1.624c-10.64 0-19.265 8.626-19.265 19.266 0 10.64 8.625 19.266 19.265 19.266.647 0 1.289-.032 1.925-.095l.653.021c.297.05.599.074.905.074h68.6c.283 0 .564-.021.84-.063l.58-.02c.683.055 1.37.083 2.062.083 13.816 0 25.016-11.2 25.016-25.015 0-13.816-11.2-25.016-25.016-25.016-2.261 0-4.48.3-6.618.884l-1.626.445-1.022-1.342c-5.864-7.7-14.957-12.307-24.82-12.307-14.447 0-26.905 9.909-30.286 23.749zm30.286-28.75a36.102 36.102 0 0 1 27.768 12.988 30.124 30.124 0 0 1 6.318-.667c16.577 0 30.016 13.439 30.016 30.016 0 16.577-13.439 30.015-30.016 30.015a30.41 30.41 0 0 1-2.191-.079 10.58 10.58 0 0 1-1.291.079h-68.6c-.464 0-.924-.03-1.38-.09-.696.06-1.398.09-2.103.09-13.401 0-24.265-10.864-24.265-24.266 0-13.402 10.864-24.266 24.265-24.266 2.436 0 4.824.36 7.103 1.057 4.803-14.646 18.562-24.876 34.376-24.876zM38.165 20.787l-.719 2.856-2.701-1.172a12.644 12.644 0 0 0-5.05-1.044C22.684 21.427 17 27.111 17 34.122s5.684 12.695 12.695 12.695c.845 0 1.677-.082 2.49-.243l.584-.116.573.159c.476.132.971.2 1.478.2h43.138c.394 0 .781-.04 1.158-.121l.427-.092.432.06c.753.102 1.516.153 2.287.153 9.28 0 16.802-7.522 16.802-16.802 0-9.279-7.523-16.801-16.802-16.801a16.81 16.81 0 0 0-4.692.663l-1.622.47-1.042-1.329A20.864 20.864 0 0 0 58.443 5c-9.637 0-17.96 6.575-20.278 15.787zM58.443 0a25.85 25.85 0 0 1 19.345 8.674c1.46-.305 2.957-.46 4.474-.46 12.04 0 21.802 9.76 21.802 21.801 0 12.041-9.761 21.802-21.802 21.802-.855 0-1.704-.05-2.545-.147-.578.098-1.166.147-1.76.147H34.82c-.754 0-1.499-.08-2.225-.237a17.8 17.8 0 0 1-2.9.237C19.922 51.817 12 43.895 12 34.122s7.922-17.695 17.695-17.695c1.506 0 2.987.189 4.417.556C37.792 6.936 47.423 0 58.442 0z" fill="#01A1F1" fill-rule="nonzero"/><path d="M129.773 103.842l-.717 2.939-2.752-1.258a11.82 11.82 0 0 0-4.93-1.068c-6.558 0-11.874 5.316-11.874 11.874 0 6.557 5.316 11.873 11.874 11.873.826 0 1.64-.084 2.433-.249l.6-.125.59.167c.483.137.987.207 1.502.207h39.852a5.52 5.52 0 0 0 1.293-.152l.483-.116.49.077c.805.127 1.622.191 2.449.191 8.599 0 15.57-6.97 15.57-15.57 0-8.599-6.971-15.57-15.57-15.57-1.325 0-2.625.165-3.882.488l-1.608.412-1.004-1.322a19.638 19.638 0 0 0-15.683-7.79c-9.12 0-16.984 6.256-19.116 14.992zm19.116-19.993a24.625 24.625 0 0 1 18.649 8.515 20.7 20.7 0 0 1 3.528-.301c11.36 0 20.57 9.209 20.57 20.57 0 11.36-9.21 20.57-20.57 20.57-.927 0-1.846-.062-2.755-.184-.642.122-1.297.183-1.96.183H126.5c-.765 0-1.52-.082-2.256-.243-.942.161-1.9.243-2.87.243-9.318 0-16.873-7.554-16.873-16.873 0-9.32 7.555-16.874 16.874-16.874 1.482 0 2.94.192 4.343.565 3.505-9.563 12.674-16.17 23.172-16.17z" fill="#1C2F70" fill-rule="nonzero"/><path d="M165.17 201.315l-3.916 11.338-11.87-11.3V190.79h.167l-4.173-7.223-19.25-3.617-22.586 11.317v6.143l-24.31 23.386-11.055-15.297v-24.516l18.337-29.86v15.54l5.635-6.992 16.393-6.844 4.522-1.073-28.29-29.17-81.095-40.19L0 41.836 15.207 21.52 51.646 2.334l-12.343 14.27 4.752 10.622 21.937 9.125H94.57l8.617 22.724 51.438 40.97v8.937l15.598 38.02 17.09-12.296 18.073-47 19.486-65.233L279.59 0l75.188 6.648L402 31.552l-61.187 12.934-15.991 15.613-1.77 20.836-24.162 15.244-14.772 19.455-7.002 27.612-35.559 6.64-20.703 34.169 18.8 13.297h-12.5l20.945 32.869 13.92 18.176 13.215 3.952 29.877-12.143 20.583-31.368 3.76 2.212-16.88 32.494-36.712 21.667-24.398-1.863-19.81-19.41-6.3-1.721v6.814l-18.775 9.188v5.35L202.254 271l-15.638-6.716 3.16-15.303 5.908-4.037-15.542-16.771-4.28-17.696h11.618l-22.31-9.162zm-3.81-2.344l-7.61-5.004v5.509l5.596 5.326 2.014-5.831zm45.92-104.042l.133.026-7.962 41.223-24.356 30.175-3.395-2.752 23.671-29.326 3.247-16.808-7.7 20.03-34.584 24.882-2.547-3.554 4.575-3.29-16.555-2.37h-15.744l-16.17 3.837-10.28 4.293v21.182h-4.367v-4.191L92 185.558l-3.986-1.787 9.677-21.674-2.84 1.186-12.703 15.759V166.58l-9.605 15.64v21.86l7.283 10.078 19.35-18.614v-6.982l26.313-13.184 22.663 4.258 5.046 8.733 13.363 8.788 21.617 8.878-2.647-6.367 26.271 5.162-.84 4.293-18.262-3.588 14.173 34.086-3.973 5.688-9.206 6.29-2.08 10.071 8.813 3.785 1.786-3.07v-6.9l18.774-9.187v-9.81l12.91 3.528 19.484 19.09 21.446 1.637 19.093-11.268-18.466 7.505-16.038-4.797-14.838-19.375-25.392-39.832h6.711l-10.89-7.703 23.831-39.331 33.667-6.286L227.28 29.66l-17.737 59.38-2.263 5.888zm-89.932 55.808l8.205-1.948h2.887c-5.988-3.656-16.03-9.83-30.128-18.523l19.456 20.061-.42.41zm17.655-1.948h7.115l21.367 3.06 3.102-2.232-.01.004-16.32-39.775v-6.409L17.862 84.542l69.52 34.453 2.552 2.631 45.07 27.163zm64.33 93.663l.448-.307 2.139-3.061-10.076-24.232h-10.432l2.705 11.18 15.215 16.42zm32.761-218.217l86.864 53.308 1.651-19.44 18.064-17.636 50.583-10.692-35.734-18.846-73.257-6.477-48.17 19.783zm83.388 56.306L231.81 29.19l43.125 104.892 5.17-20.39 15.79-20.794 19.587-12.358zM145.456 98.333l-45.925-36.58-7.583-19.996-76.322 38.046 129.83 18.53zM84.215 40.726H65.122L40.78 30.601l-6.374-14.248-16.297 8.58L4.5 43.116l3.242 35.731 76.473-38.12zm89.295 151.265l1.557-5.202-2.482-10.364 4.245-1.02 2.757 11.51-3.682 12.299-15.169-11.26v-12.04h4.366v9.836l8.408 6.24z" fill="url(#a)" fill-rule="nonzero" transform="translate(0 119)"/><path fill="#12579E" d="M82 324v-6.724L90 311z"/></g></svg>