<svg width="376" height="412" xmlns="http://www.w3.org/2000/svg"><defs><linearGradient x1="12.372%" y1="72.895%" x2="95.954%" y2="21.119%" id="a"><stop stop-color="#1E2B6C" offset="0%"/><stop stop-color="#00ADFF" offset="100%"/></linearGradient></defs><g fill="none" fill-rule="evenodd"><path d="M249.47 122.5h14.505v28h16.248l92.36-63.56 2.834 4.12-93.64 64.44h-22.802v-28h-9.505v126.52h45.066L87.994 408.004l-2.988-4.008L279.464 259.02H244.47V99.228h-9.043V41.5h-23.253v219h-91.25V87.372h-5.947V59.257H93.21v11.838H69.47v44.391h-7.488V259.02H0v-5h29.5V149.5H1v-5h9.5V85.473h8.885V73.5h18.421v11.992h11.755v37.185h7.42v-12.19h7.489V66.094h23.74V54.257h31.767v28.115h5.948v25.184h12.979V86.75h17.894V62.973h4.474V37.709h2.982v-5.944h2.983v-5.944h4.474v-5.945h4.473V.5h9.474v19.376h4.474v5.945h4.473v5.944h2.983v7.43h2.982v22.292h2.983V113.5h3.62v-77h33.254v57.728h9.043V122.5zM56.982 187v-59.323H44.56V90.492H32.806V78.5h-8.42v11.973H15.5V144.5h19V187h22.482zm0 5H34.5v62.02h22.482V192zM187.5 255.5v-50h19.674v-48h-30.399v39h-19.988v-19.474h-30.862V255.5H187.5zm5 0h14.674v-45H192.5v45zm-66.575-83.474h35.862V191.5h9.988v-39h35.399v-34h-8.621V66.487h-2.983V44.195h-2.982v-7.43h-2.983v-5.944h-4.473v-5.945h-4.474V3l2.5 2.5h-4.474l2.5-2.5v21.876h-4.473v5.945h-4.474v5.944h-2.983v5.944h-2.982v25.264h-4.474V91.75h-17.894v20.806h-17.98v59.47z" fill-rule="nonzero" fill="url(#a)"/><path d="M29 410l55-38" stroke="#01A7F8" stroke-width="5"/><path d="M302 105l25-17" stroke="#193F83" stroke-width="5"/></g></svg>