<svg width="326" height="281" xmlns="http://www.w3.org/2000/svg"><defs><linearGradient x1="0%" y1="78.536%" y2="38.337%" id="a"><stop stop-color="#1E2B6C" offset="0%"/><stop stop-color="#00ADFF" offset="100%"/></linearGradient></defs><g fill="none"><path d="M136 20.926L97.381 81.138l.7 1.362H136V70.16l-8.5-15V38.3l8.5-14v-3.374zm5-7.795V25.7l-8.5 14v14.14l8.5 15V82.5h14.203l8.332 5.091 8.793-5.091H189V69.86l8.5-15.5V40.22l-8.5-13.5V14.03L187.12 11h-44.753L141 13.13zm0 74.369v6.44l-14.619 16.706-3.762-3.292L136 92.06V87.5h-35.352l15.988 31.134-10.136 8.49v69.4l56.676 31.29L221 196.023v-69.914l-32-29V87.5h-15.328l-10.206 5.909-9.67-5.909H141zm45.5 100v15h-45v-15h-10V166h5v16.5h55V166h5v21.5h-10zm-5 0h-35v10h35v-10zm12.5-100v7.392l32 29v75.086l-57.645 31.695 79.377 43.823c48.512-39.5 72.768-59.3 72.768-59.4V6.012l-66.614 50.18a8.5 8.5 0 0 0-3.386 6.79V251h-5V62.983a13.5 13.5 0 0 1 5.377-10.783l67.415-50.784a4.5 4.5 0 0 1 7.208 3.595v210.084a5.5 5.5 0 0 1-2.03 4.268l-75.202 61.14-85.097-46.98-85.442 46.979-75.199-61.14a5.5 5.5 0 0 1-2.03-4.267V5.011a4.5 4.5 0 0 1 7.208-3.595L75.123 52.2A13.5 13.5 0 0 1 80.5 62.983V251h-5V62.983a8.5 8.5 0 0 0-3.386-6.79L5.5 6.014v209.082c0 .1 24.257 19.901 72.77 59.403l79.723-43.834-56.493-31.189V124.79l8.864-7.423-18.745-36.504L139.633 6h50.268l46.46 74.869-13.625 27.249-4.472-2.236 9.19-18.382H194zm0-5h35.955l.684-1.369L194 22.088v3.19l8.5 13.5V55.64l-8.5 15.5V82.5zm-49.5-34v-7h10.512v7H144.5zm29 0v-7h10.512v7H173.5zm-17 24v-5h15v5h-15zm53.047 82v-8H113.5v-18.585l98.549.085-.004 5-93.545-.08v8.58h96.047v18H116v-5h93.547z" fill="url(#a)"/><path d="M265 88.135v133.208l44-33.858V55.444l-44 32.691zm-5-2.514L314 45.5v144.446L260 231.5V85.621z" fill="#00ADFF"/><path d="M17 55.444l44 32.691v133.208l-44-33.858V55.444zM66 85.62L12 45.5v144.446L66 231.5V85.621z" fill="#193F82"/></g></svg>