<svg width="366" height="441" xmlns="http://www.w3.org/2000/svg"><defs><linearGradient x1="85.674%" y1="3.064%" x2="9.465%" y2="92.508%" id="a"><stop stop-color="#01A7F8" offset="0%"/><stop stop-color="#1E2B6C" offset="100%"/></linearGradient></defs><g fill="none" fill-rule="evenodd"><g fill-rule="nonzero" fill="#01A5F6"><path d="M175.001 205.481c-1.09-.519-3.516-1.218-6.405-1.4-2.89-.182-6.596 0-6.596 0v11.902s3.87.079 6.46-.103c2.589-.182 5.26-.804 6.596-1.505 1.335-.7 2.944-1.789 2.944-4.511 0-2.724-1.908-3.864-2.999-4.383zm-8.289-8.516c2.066-.08 4.262-.55 5.85-1.416 1.588-.866 2.488-2.228 2.436-4.274-.054-2.046-1.43-3.777-3.759-4.485-2.33-.709-3.89-.761-5.665-.787a40.464 40.464 0 0 0-3.574.131v10.83s2.647.08 4.712 0z"/><path d="M165.5 155c-25.68 0-46.5 20.818-46.5 46.5 0 25.681 20.82 46.5 46.5 46.5 25.682 0 46.5-20.819 46.5-46.5 0-25.682-20.818-46.5-46.5-46.5zm18.934 64.28c-3.46 2.413-7.161 2.843-8.797 3.057-.807.106-2.19.218-3.673.305v9.322h-5.74v-9.172h-4.37v9.172h-5.74v-9.172h-11.289l1.18-6.893h3.432c1.154 0 1.636-.107 2.118-.562.483-.456.59-1.153.59-1.717v-23.746c0-1.488-.12-1.89-.805-2.654-.684-.766-2.292-.866-3.198-.866h-3.317v-5.959h11.29v-9.198h5.738v9.198h4.37v-9.198h5.74v9.309c4.278.265 7.463 1.08 10.243 3.134 3.594 2.655 3.406 7.267 3.325 8.367-.08 1.1-.562 3.218-1.529 4.585-.964 1.368-3.324 2.736-3.324 2.736s2.789.59 4.747 2.065c1.956 1.475 3.406 4.075 3.324 7.884-.079 3.808-.856 7.59-4.315 10.002z"/></g><path d="M270.724 54.205l-27.577-27.578-3.535 3.536 28.238 28.239 2.874 2.874L328 4 324.464.464l-53.74 53.74zM79.76 410l26.87-26.87-3.536-3.536-26.87 26.87-26.87-26.87-3.535 3.536L72.689 410l-26.87 26.87 3.535 3.536 26.87-26.87 26.87 26.87 3.536-3.536L79.76 410zM19.5 279.5H.5v-162h327v19h19v22h19v162h-327v-22h-19v-19zm5 0v14h317v-152h-14v138h-303zm322-116v135h-303v17h317v-152h-14zm-341-41v152h317v-152H5.5z" fill-rule="nonzero" fill="url(#a)"/><path stroke="#14579D" stroke-width="5" d="M25 136v66h80m199 65v-66h-80"/><path d="M304 136v53M25 214v53" stroke="#01A5F6" stroke-width="5"/></g></svg>