<svg width="258" height="302" xmlns="http://www.w3.org/2000/svg"><defs><linearGradient x1="50%" y1="0%" x2="50%" y2="100%" id="a"><stop stop-color="#01A5F6" offset="0%"/><stop stop-color="#1D3173" offset="100%"/></linearGradient></defs><path d="M134.799 103.875c0 4.53.017 7.926.05 10.182l.015.884c19.404-.983 32.882-14.224 40.636-40.303V29.436l-40.508 34.721c-.129 17.593-.193 30.833-.193 39.718zm45.701-85.31V75.36l-.102.345C171.778 105.015 155.735 120 132.5 120c-2.361 0-2.21.685-2.534-2.456-.02-.2-.037-.456-.052-.785a96.67 96.67 0 0 1-.065-2.628 758.94 758.94 0 0 1-.05-10.256c0-9.09.067-22.721.201-40.893l.008-1.14L180.5 18.565zm-91.701 10.87v45.203c7.753 26.08 21.231 39.32 40.636 40.303l.015-.884c.033-2.256.05-5.652.05-10.182 0-8.885-.064-22.125-.193-39.718L88.8 29.436zm45.5 33.547c.134 18.172.201 31.802.201 40.893 0 4.553-.017 7.97-.05 10.256a96.67 96.67 0 0 1-.066 2.628 13.3 13.3 0 0 1-.051.785c-.325 3.14-.173 2.456-2.534 2.456-23.235 0-39.278-14.985-47.899-44.295l-.101-.345V18.564l50.491 43.279.009 1.139zm-2.049-3.292l17.616-15.28-17.616-33.534-17.616 33.533L132.25 59.69zm0-59.566l23.884 45.467L132.25 66.31l-23.884-20.72L132.25.125zM51.5 196.875c0 4.53.017 7.926.05 10.182l.015.884c19.405-.983 32.883-14.224 40.636-40.303v-45.202l-40.508 34.721c-.129 17.593-.193 30.833-.193 39.718zm45.701-85.31v56.795l-.101.345C88.48 198.015 72.436 213 49.2 213c-2.36 0-2.21.685-2.534-2.456-.02-.2-.037-.456-.051-.785a96.67 96.67 0 0 1-.065-2.628 753.209 753.209 0 0 1-.051-10.256c0-9.09.067-22.721.201-40.893l.009-1.14L97.2 111.565zM5.5 122.434v45.203c7.754 26.08 21.232 39.32 40.636 40.303l.015-.884c.033-2.256.05-5.652.05-10.182 0-8.885-.064-22.125-.193-39.718L5.5 122.436zM51 155.983c.134 18.172.201 31.802.201 40.893 0 4.553-.017 7.97-.05 10.256a96.671 96.671 0 0 1-.065 2.628c-.015.329-.031.584-.052.785-.325 3.14-.173 2.456-2.534 2.456-23.235 0-39.278-14.985-47.898-44.295L.5 168.36v-56.796l50.492 43.279.008 1.139zm-19.857-19.045L49 152.668l17.857-15.731L49 103.773l-17.857 33.164zM49 93.227l24.143 44.836L49 159.332l-24.143-21.269L49 93.227zm162.5 138.648c0 4.53.017 7.926.05 10.182l.015.884c19.405-.983 32.883-14.224 40.636-40.303v-45.202l-40.508 34.721c-.129 17.593-.193 30.833-.193 39.718zm45.701-85.31v56.795l-.101.345C248.48 233.015 232.436 248 209.2 248c-2.36 0-2.21.685-2.534-2.456-.02-.2-.037-.456-.051-.785a96.67 96.67 0 0 1-.065-2.628 753.209 753.209 0 0 1-.051-10.256c0-9.09.067-22.721.201-40.893l.009-1.14 50.491-43.278zm-91.701 10.87v45.203c7.754 26.08 21.232 39.32 40.636 40.303l.015-.884c.033-2.256.05-5.652.05-10.182 0-8.885-.064-22.125-.193-39.718L165.5 157.436zm45.5 33.547c.134 18.172.201 31.802.201 40.893 0 4.553-.017 7.97-.05 10.256a96.67 96.67 0 0 1-.065 2.628c-.015.329-.031.584-.052.785-.325 3.14-.173 2.456-2.534 2.456-23.235 0-39.278-14.985-47.898-44.295l-.102-.345v-56.796l50.492 43.279.008 1.139zm-2.25-3.331l17.604-15.696-17.604-32.239-17.604 32.24 17.604 15.695zM134.5 296.5h72V245h5v51.5h38.533v5H9v-5h37.5V210h5v86.5h78v-179h5v179zm74.25-167.216l23.896 43.76-23.896 21.305-23.896-21.304 23.896-43.761z" fill="url(#a)"/></svg>