<?xml version="1.0" encoding="UTF-8" standalone="no"?>
<svg width="44px" height="24px" viewBox="0 0 44 24" version="1.1" xmlns="http://www.w3.org/2000/svg" xmlns:xlink="http://www.w3.org/1999/xlink">
    <!-- Generator: Sketch 48.1 (47250) - http://www.bohemiancoding.com/sketch -->
    <title>Arrows</title>
    <desc>Created with Sketch.</desc>
    <defs></defs>
    <g id="Drimz2-features2" stroke="none" stroke-width="1" fill="none" fill-rule="evenodd" transform="translate(-1235.000000, -135.000000)">
        <g id="burger_agressive" transform="translate(177.000000, -312.000000)" fill="#FFFFFF" fill-rule="nonzero">
            <g id="iphone-x" transform="translate(806.000000, 410.000000)">
                <g id="Group-7" transform="translate(18.000000, 12.000000)">
                    <g id="Arrows" transform="translate(234.000000, 25.000000)">
                        <path d="M43.4959409,20.9225965 C44.1680197,21.6267168 44.1680197,22.7677894 43.4959409,23.4719098 C42.8238622,24.1760301 41.734715,24.1760301 41.0626362,23.4719098 L31.4890422,13.4418916 C30.7288778,12.6454861 30.7288778,11.354004 31.4890422,10.5575985 L41.0626362,0.528090246 C41.734715,-0.176030082 42.8238622,-0.176030082 43.4959409,0.528090246 C44.1680197,1.23221057 44.1680197,2.3732832 43.4959409,3.07740352 L34.9793745,12 L43.4959409,20.9225965 Z" id="Shape" transform="translate(37.459459, 12.000000) scale(-1, 1) translate(-37.459459, -12.000000) "></path>
                        <path d="M28.0364815,20.9225965 C28.7085602,21.6267168 28.7085602,22.7677894 28.0364815,23.4719098 C27.3644027,24.1760301 26.2752555,24.1760301 25.6031768,23.4719098 L16.0295828,13.4418916 C15.2694184,12.6454861 15.2694184,11.354004 16.0295828,10.5575985 L25.6031768,0.528090246 C26.2752555,-0.176030082 27.3644027,-0.176030082 28.0364815,0.528090246 C28.7085602,1.23221057 28.7085602,2.3732832 28.0364815,3.07740352 L19.519915,12 L28.0364815,20.9225965 Z" id="Shape-Copy" transform="translate(22.000000, 12.000000) scale(-1, 1) translate(-22.000000, -12.000000) "></path>
                        <path d="M12.577022,20.9225965 C13.2491008,21.6267168 13.2491008,22.7677894 12.577022,23.4719098 C11.9049433,24.1760301 10.8157961,24.1760301 10.1437173,23.4719098 L0.570123292,13.4418916 C-0.190041097,12.6454861 -0.190041097,11.354004 0.570123292,10.5575985 L10.1437173,0.528090246 C10.8157961,-0.176030082 11.9049433,-0.176030082 12.577022,0.528090246 C13.2491008,1.23221057 13.2491008,2.3732832 12.577022,3.07740352 L4.06045556,12 L12.577022,20.9225965 Z" id="Shape-Copy-2" transform="translate(6.540541, 12.000000) scale(-1, 1) translate(-6.540541, -12.000000) "></path>
                    </g>
                </g>
            </g>
        </g>
    </g>
</svg>