<?xml version="1.0" encoding="UTF-8" standalone="no"?>
<svg width="32px" height="32px" viewBox="0 0 32 32" version="1.1" xmlns="http://www.w3.org/2000/svg" xmlns:xlink="http://www.w3.org/1999/xlink">
    <!-- Generator: Sketch 47.1 (45422) - http://www.bohemiancoding.com/sketch -->
    <title>Check active</title>
    <desc>Created with Sketch.</desc>
    <defs></defs>
    <g id="Design" stroke="none" stroke-width="1" fill="none" fill-rule="evenodd">
        <g id="Drimz2-features2-popup3" transform="translate(-445.000000, -556.000000)" fill="#2CA8F5">
            <path d="M461,588 C452.163444,588 445,580.836556 445,572 C445,563.163444 452.163444,556 461,556 C469.836556,556 477,563.163444 477,572 C477,580.836556 469.836556,588 461,588 Z M459.595481,575.158522 L455.318149,570.946574 C455.032387,570.665179 454.569074,570.665179 454.283311,570.946574 L454.214322,571.014509 C453.928559,571.295903 453.928559,571.752134 454.214322,572.033528 L459.043567,576.788954 C459.245712,576.98801 459.536704,577.046255 459.790844,576.963691 C459.934144,576.934111 460.070632,576.864543 460.181889,576.754987 L469.77139,567.31207 C470.076203,567.011916 470.076203,566.52527 469.77139,566.225116 C469.466576,565.924961 468.972376,565.924961 468.667562,566.225116 L459.595481,575.158522 Z" id="Check-active"></path>
        </g>
    </g>
</svg>