<?xml version="1.0" encoding="UTF-8" standalone="no"?>
<svg width="32px" height="32px" viewBox="0 0 32 32" version="1.1" xmlns="http://www.w3.org/2000/svg" xmlns:xlink="http://www.w3.org/1999/xlink">
    <!-- Generator: Sketch 47.1 (45422) - http://www.bohemiancoding.com/sketch -->
    <title>Check disabled</title>
    <desc>Created with Sketch.</desc>
    <defs></defs>
    <g id="Design" stroke="none" stroke-width="1" fill="none" fill-rule="evenodd">
        <g id="Drimz2-features2-popup3" transform="translate(-445.000000, -654.000000)" fill="#BDC3D7">
            <path d="M461,686 C452.163444,686 445,678.836556 445,670 C445,661.163444 452.163444,654 461,654 C469.836556,654 477,661.163444 477,670 C477,678.836556 469.836556,686 461,686 Z M459.595481,673.158522 L455.318149,668.946574 C455.032387,668.665179 454.569074,668.665179 454.283311,668.946574 L454.214322,669.014509 C453.928559,669.295903 453.928559,669.752134 454.214322,670.033528 L459.043567,674.788954 C459.245712,674.98801 459.536704,675.046255 459.790844,674.963691 C459.934144,674.934111 460.070632,674.864543 460.181889,674.754987 L469.77139,665.31207 C470.076203,665.011916 470.076203,664.52527 469.77139,664.225116 C469.466576,663.924961 468.972376,663.924961 468.667562,664.225116 L459.595481,673.158522 Z" id="Check-disabled"></path>
        </g>
    </g>
</svg>