<?xml version="1.0" encoding="UTF-8" standalone="no"?>
<svg width="14px" height="13px" viewBox="0 0 14 13" version="1.1" xmlns="http://www.w3.org/2000/svg" xmlns:xlink="http://www.w3.org/1999/xlink">
    <!-- Generator: Sketch 48.1 (47250) - http://www.bohemiancoding.com/sketch -->
    <title>Send</title>
    <desc>Created with Sketch.</desc>
    <defs></defs>
    <g id="Mobile2" stroke="none" stroke-width="1" fill="none" fill-rule="evenodd" transform="translate(-73.000000, -647.000000)">
        <g id="Email-form" transform="translate(0.000000, 508.000000)" fill="#FFFFFF" fill-rule="nonzero">
            <g id="Send" transform="translate(16.000000, 130.000000)">
                <path d="M59.4890835,16.314304 L64.0409109,15.4238291 L59.4102409,14.5179301 L57.0309964,9.46279985 C56.9725405,9.33887687 56.9984118,9.19202326 57.0958383,9.09525925 C57.1932649,8.9988205 57.3407965,8.9726373 57.4658955,9.03037045 L70.8108779,15.2052151 C70.813989,15.2066788 70.8161176,15.2091182 70.8192287,15.2105819 C70.8408427,15.2213154 70.8606555,15.2343257 70.8791583,15.2494501 C70.8840706,15.2535158 70.8894741,15.2574189 70.8942226,15.2616473 C70.9140354,15.2798617 70.9317195,15.3000276 70.9466201,15.322633 C70.9490762,15.3262108 70.9505499,15.3302765 70.9528423,15.3338544 C70.9647954,15.353695 70.9742925,15.3748368 70.9818246,15.3972795 C70.984117,15.4039473 70.9862457,15.4104524 70.9880468,15.4172828 C70.9950877,15.4437913 71,15.4711129 71,15.4998981 C71,15.5286834 70.9950877,15.556005 70.9880468,15.5825135 C70.9862457,15.5893439 70.984117,15.595849 70.9818246,15.6025168 C70.9742925,15.6249595 70.9646317,15.6461012 70.9528423,15.6659419 C70.9505499,15.6695197 70.9490762,15.6735855 70.9466201,15.6771633 C70.9317195,15.6997687 70.9140354,15.7199346 70.8940589,15.738149 C70.8893103,15.7423774 70.8839068,15.7462804 70.8789946,15.7503462 C70.8604917,15.7654706 70.8406789,15.7784809 70.819065,15.7892144 C70.8159539,15.790678 70.8138252,15.7931175 70.8107141,15.7945811 L57.4657317,21.9694258 C57.4213576,21.989917 57.3741999,22 57.3275334,22 C57.2423875,22 57.1585515,21.967149 57.0956746,21.904537 C56.9984118,21.807773 56.9725405,21.6609194 57.0308327,21.5369964 L59.4890835,16.314304 Z"></path>
            </g>
        </g>
    </g>
</svg>