<svg width="44" height="24" xmlns="http://www.w3.org/2000/svg"><path d="M31.423 20.923a1.864 1.864 0 0 0 0 2.549 1.666 1.666 0 0 0 2.433 0l9.574-10.03c.76-.797.76-2.088 0-2.884L33.856.528a1.666 1.666 0 0 0-2.433 0 1.864 1.864 0 0 0 0 2.55L39.94 12l-8.517 8.923zm-15.459 0a1.864 1.864 0 0 0 0 2.549 1.666 1.666 0 0 0 2.433 0l9.573-10.03c.76-.797.76-2.088 0-2.884L18.397.528a1.666 1.666 0 0 0-2.433 0 1.864 1.864 0 0 0 0 2.55L24.48 12l-8.516 8.923zm-15.46 0a1.864 1.864 0 0 0 0 2.549 1.666 1.666 0 0 0 2.433 0l9.574-10.03c.76-.797.76-2.088 0-2.884L2.937.528a1.666 1.666 0 0 0-2.433 0 1.864 1.864 0 0 0 0 2.55L9.021 12 .504 20.923z" fill="#FFF"/></svg>