<svg width="54" height="54" xmlns="http://www.w3.org/2000/svg" xmlns:xlink="http://www.w3.org/1999/xlink"><defs><path d="M1215 671h34a2 2 0 0 1 2 2v34a2 2 0 0 1-2 2h-34a2 2 0 0 1-2-2v-34a2 2 0 0 1 2-2zm14.093 30.953h4.877v-10.36h3.495l.487-4.692h-4.053v-2.916c0-1.377 1.183-1.377 1.183-1.377h2.802V678h-4.517c-4.058.038-4.203 4.933-4.203 4.933v3.886H1226v4.696h3.093v10.438z" id="b"/><filter x="-31.6%" y="-31.6%" width="163.2%" height="163.2%" filterUnits="objectBoundingBox" id="a"><feOffset in="SourceAlpha" result="shadowOffsetOuter1"/><feGaussianBlur stdDeviation="4" in="shadowOffsetOuter1" result="shadowBlurOuter1"/><feColorMatrix values="0 0 0 0 0 0 0 0 0 0.768627451 0 0 0 0 1 0 0 0 0.5 0" in="shadowBlurOuter1"/></filter></defs><g transform="translate(-1205 -663)" fill="none" fill-rule="evenodd"><use fill="#000" filter="url(#a)" xlink:href="#b"/><use fill="#FFF" xlink:href="#b"/></g></svg>