<svg width="54" height="54" xmlns="http://www.w3.org/2000/svg" xmlns:xlink="http://www.w3.org/1999/xlink"><defs><path d="M1269 671h34a2 2 0 0 1 2 2v34a2 2 0 0 1-2 2h-34a2 2 0 0 1-2-2v-34a2 2 0 0 1 2-2zm28.646 11.312a9.533 9.533 0 0 1-2.786.776 4.926 4.926 0 0 0 2.133-2.728 9.618 9.618 0 0 1-3.08 1.197 4.81 4.81 0 0 0-3.542-1.557c-2.679 0-4.85 2.207-4.85 4.93 0 .386.042.762.125 1.124-4.032-.206-7.607-2.169-10-5.152a4.966 4.966 0 0 0-.656 2.48c0 1.71.856 3.219 2.158 4.103a4.779 4.779 0 0 1-2.198-.617v.062c0 2.389 1.672 4.38 3.892 4.834a4.804 4.804 0 0 1-2.191.084c.617 1.959 2.409 3.385 4.531 3.424a9.634 9.634 0 0 1-7.182 2.042 13.57 13.57 0 0 0 7.437 2.215c8.923 0 13.803-7.512 13.803-14.028 0-.213-.005-.426-.014-.638a9.916 9.916 0 0 0 2.42-2.551z" id="b"/><filter x="-31.6%" y="-31.6%" width="163.2%" height="163.2%" filterUnits="objectBoundingBox" id="a"><feOffset in="SourceAlpha" result="shadowOffsetOuter1"/><feGaussianBlur stdDeviation="4" in="shadowOffsetOuter1" result="shadowBlurOuter1"/><feColorMatrix values="0 0 0 0 0 0 0 0 0 0.768627451 0 0 0 0 1 0 0 0 0.5 0" in="shadowBlurOuter1"/></filter></defs><g transform="translate(-1259 -663)" fill="none" fill-rule="evenodd"><use fill="#000" filter="url(#a)" xlink:href="#b"/><use fill="#FFF" xlink:href="#b"/></g></svg>