<?xml version="1.0" encoding="UTF-8" standalone="no"?>
<svg width="327px" height="670px" viewBox="0 0 327 670" version="1.1" xmlns="http://www.w3.org/2000/svg" xmlns:xlink="http://www.w3.org/1999/xlink">
    <!-- Generator: Sketch 47.1 (45422) - http://www.bohemiancoding.com/sketch -->
    <title>iphone</title>
    <desc>Created with Sketch.</desc>
    <defs>
        <path d="M0.53058104,49.0460972 C0.53058104,21.9586857 22.4860822,0 49.5804711,0 L277.419529,0 C304.509035,0 326.469419,21.9586301 326.469419,49.0460972 L326.469419,620.953903 C326.469419,648.041314 304.513918,670 277.419529,670 L49.5804711,670 C22.4909648,670 0.53058104,648.04137 0.53058104,620.953903 L0.53058104,49.0460972 Z M18.7507645,81.4050478 L18.7507645,589.100613 C18.7507645,589.929882 19.4325867,590.611321 20.273657,590.611321 L306.726343,590.611321 C307.565819,590.611321 308.249235,589.934954 308.249235,589.100613 L308.249235,81.4050478 C308.249235,80.5757779 307.567413,79.8943396 306.726343,79.8943396 L20.273657,79.8943396 C19.4341813,79.8943396 18.7507645,80.5707067 18.7507645,81.4050478 Z" id="path-1"></path>
    </defs>
    <g id="Design" stroke="none" stroke-width="1" fill="none" fill-rule="evenodd">
        <g id="iphone">
            <use fill="#212227" fill-rule="evenodd" xlink:href="#path-1"></use>
            <path stroke="#2B2E35" stroke-width="5.05660377" d="M3.05888293,49.0460972 L3.05888293,620.953903 C3.05888293,646.644964 23.887244,667.471698 49.5804711,667.471698 L277.419529,667.471698 C303.115894,667.471698 323.941117,646.646653 323.941117,620.953903 L323.941117,49.0460972 C323.941117,23.3550361 303.112756,2.52830189 277.419529,2.52830189 L49.5804711,2.52830189 C23.8841063,2.52830189 3.05888293,23.3533468 3.05888293,49.0460972 Z M16.2224626,81.4050478 C16.2224626,79.1699305 18.0422196,77.3660377 20.273657,77.3660377 L306.726343,77.3660377 C308.958769,77.3660377 310.777537,79.174438 310.777537,81.4050478 L310.777537,589.100613 C310.777537,591.33573 308.95778,593.139623 306.726343,593.139623 L20.273657,593.139623 C18.0412311,593.139623 16.2224626,591.331222 16.2224626,589.100613 L16.2224626,81.4050478 Z"></path>
        </g>
    </g>
</svg>